<?xml version="1.0" encoding="UTF-8" standalone="no"?>
<!DOCTYPE svg PUBLIC "-//W3C//DTD SVG 1.1//EN" "http://www.w3.org/Graphics/SVG/1.1/DTD/svg11.dtd">
<svg width="100%" height="100%" viewBox="0 0 96 96" version="1.1" xmlns="http://www.w3.org/2000/svg" xmlns:xlink="http://www.w3.org/1999/xlink" xml:space="preserve" xmlns:serif="http://www.serif.com/" style="fill-rule:evenodd;clip-rule:evenodd;stroke-linejoin:round;stroke-miterlimit:1.41421;">
    <g transform="matrix(5.94291,0,0,5.94291,-138.493,-183.168)">
        <path d="M34.192,44.377L34.192,42.022L31.854,42.022L31.854,41.038L34.192,41.038L34.192,38.7L35.188,38.7L35.188,41.038L37.526,41.038L37.526,42.022L35.188,42.022L35.188,44.377L34.192,44.377Z" style="fill:rgb(205,205,205);fill-rule:nonzero;"/>
    </g>
    <g transform="matrix(7.5223,0,0,7.5223,-241.997,-248.267)">
        <path d="M32.065,45.766L32.065,37.176L35.288,37.176C35.944,37.176 36.471,37.263 36.867,37.437C37.263,37.611 37.574,37.878 37.799,38.24C38.023,38.601 38.136,38.979 38.136,39.374C38.136,39.741 38.036,40.086 37.837,40.411C37.638,40.735 37.337,40.997 36.934,41.196C37.454,41.348 37.853,41.608 38.133,41.975C38.412,42.342 38.552,42.776 38.552,43.276C38.552,43.678 38.467,44.052 38.297,44.398C38.127,44.744 37.917,45.01 37.667,45.198C37.417,45.385 37.103,45.527 36.726,45.623C36.349,45.718 35.888,45.766 35.341,45.766L32.065,45.766ZM33.202,40.786L35.059,40.786C35.563,40.786 35.925,40.752 36.143,40.686C36.432,40.6 36.65,40.458 36.797,40.258C36.943,40.059 37.016,39.809 37.016,39.508C37.016,39.223 36.948,38.972 36.811,38.755C36.675,38.539 36.479,38.39 36.225,38.31C35.971,38.23 35.536,38.19 34.919,38.19L33.202,38.19L33.202,40.786ZM33.202,44.752L35.341,44.752C35.708,44.752 35.966,44.739 36.114,44.711C36.376,44.665 36.595,44.586 36.77,44.477C36.946,44.368 37.091,44.209 37.204,44C37.317,43.791 37.374,43.549 37.374,43.276C37.374,42.956 37.292,42.677 37.128,42.441C36.964,42.205 36.736,42.039 36.445,41.943C36.154,41.847 35.735,41.799 35.188,41.799L33.202,41.799L33.202,44.752Z" style="fill:rgb(205,205,205);fill-rule:nonzero;"/>
    </g>
</svg>
