<?xml version="1.0" encoding="UTF-8" standalone="no"?>
<!DOCTYPE svg PUBLIC "-//W3C//DTD SVG 1.1//EN" "http://www.w3.org/Graphics/SVG/1.1/DTD/svg11.dtd">
<svg width="100%" height="100%" viewBox="0 0 96 96" version="1.1" xmlns="http://www.w3.org/2000/svg" xmlns:xlink="http://www.w3.org/1999/xlink" xml:space="preserve" xmlns:serif="http://www.serif.com/" style="fill-rule:evenodd;clip-rule:evenodd;stroke-linejoin:round;stroke-miterlimit:1.41421;">
    <g transform="matrix(6.596,0,0,5.51607,-155.472,-169.052)">
        <rect x="31.567" y="42.127" width="3.24" height="1.061" style="fill:rgb(205,205,205);fill-rule:nonzero;"/>
    </g>
    <g transform="matrix(6.94588,0,0,6.94588,-220.768,-221.803)">
        <path d="M38.241,42.754L39.378,43.042C39.139,43.975 38.711,44.687 38.092,45.177C37.472,45.668 36.716,45.913 35.821,45.913C34.895,45.913 34.142,45.724 33.562,45.347C32.982,44.97 32.541,44.424 32.238,43.709C31.935,42.995 31.784,42.227 31.784,41.407C31.784,40.512 31.955,39.732 32.297,39.066C32.638,38.4 33.125,37.894 33.756,37.548C34.387,37.203 35.081,37.03 35.839,37.03C36.698,37.03 37.421,37.249 38.007,37.686C38.593,38.124 39.001,38.739 39.231,39.532L38.112,39.795C37.913,39.17 37.624,38.715 37.245,38.43C36.866,38.145 36.389,38.002 35.815,38.002C35.155,38.002 34.603,38.161 34.16,38.477C33.717,38.793 33.405,39.218 33.225,39.751C33.046,40.285 32.956,40.834 32.956,41.401C32.956,42.131 33.062,42.769 33.275,43.314C33.488,43.859 33.819,44.266 34.268,44.536C34.718,44.805 35.204,44.94 35.727,44.94C36.364,44.94 36.903,44.756 37.345,44.389C37.786,44.022 38.085,43.477 38.241,42.754Z" style="fill:rgb(205,205,205);fill-rule:nonzero;"/>
    </g>
</svg>
