<?xml version="1.0" encoding="UTF-8" standalone="no"?>
<!DOCTYPE svg PUBLIC "-//W3C//DTD SVG 1.1//EN" "http://www.w3.org/Graphics/SVG/1.1/DTD/svg11.dtd">
<svg width="100%" height="100%" viewBox="0 0 96 96" version="1.1" xmlns="http://www.w3.org/2000/svg" xmlns:xlink="http://www.w3.org/1999/xlink" xml:space="preserve" xmlns:serif="http://www.serif.com/" style="fill-rule:evenodd;clip-rule:evenodd;stroke-linejoin:round;stroke-miterlimit:1.41421;">
    <g transform="matrix(5.94291,0,0,5.94291,-133.675,-182.302)">
        <path d="M34.192,44.377L34.192,42.022L31.854,42.022L31.854,41.038L34.192,41.038L34.192,38.7L35.188,38.7L35.188,41.038L37.526,41.038L37.526,42.022L35.188,42.022L35.188,44.377L34.192,44.377Z" style="fill:rgb(205,205,205);fill-rule:nonzero;"/>
    </g>
    <g transform="matrix(7.22375,0,0,7.22375,-231.97,-235.02)">
        <path d="M32.112,45.766L32.112,37.176L35.071,37.176C35.739,37.176 36.249,37.217 36.6,37.299C37.093,37.413 37.513,37.618 37.86,37.915C38.313,38.297 38.652,38.787 38.877,39.382C39.101,39.978 39.214,40.659 39.214,41.424C39.214,42.077 39.138,42.655 38.985,43.159C38.833,43.663 38.638,44.08 38.399,44.41C38.161,44.74 37.9,45 37.617,45.189C37.334,45.378 36.992,45.522 36.592,45.62C36.191,45.717 35.731,45.766 35.212,45.766L32.112,45.766ZM33.249,44.752L35.083,44.752C35.649,44.752 36.094,44.7 36.416,44.594C36.738,44.489 36.995,44.34 37.186,44.149C37.456,43.879 37.666,43.517 37.816,43.062C37.967,42.607 38.042,42.055 38.042,41.407C38.042,40.508 37.894,39.818 37.599,39.335C37.305,38.853 36.946,38.53 36.524,38.366C36.22,38.249 35.729,38.19 35.054,38.19L33.249,38.19L33.249,44.752Z" style="fill:rgb(205,205,205);fill-rule:nonzero;"/>
    </g>
</svg>
