<?xml version="1.0" encoding="UTF-8" standalone="no"?>
<!DOCTYPE svg PUBLIC "-//W3C//DTD SVG 1.1//EN" "http://www.w3.org/Graphics/SVG/1.1/DTD/svg11.dtd">
<svg width="100" height="100" viewBox="0 0 100 100" version="1.1" xmlns="http://www.w3.org/2000/svg" xmlns:xlink="http://www.w3.org/1999/xlink" xml:space="preserve" xmlns:serif="http://www.serif.com/" style="fill-rule:evenodd;clip-rule:evenodd;stroke-linejoin:round;stroke-miterlimit:1.41421;">
    <g transform="matrix(1.11739,0,0,1.11739,-1.65035,-11.7388)">
        <path d="M47.682,20.833L47.682,26.389L81.016,26.389L81.016,94.444L31.016,94.444L31.016,38.984L25.459,36.846L25.459,100L86.571,100L86.571,26.389L86.571,20.833L47.682,20.833Z" style="fill-rule:nonzero;"/>
    </g>
    <g transform="matrix(1.11739,0,0,1.11739,-1.65035,-11.7388)">
        <rect x="36.571" y="38.889" width="25" height="2.777"/>
    </g>
    <g transform="matrix(1.11739,0,0,1.11739,-1.65035,-11.7388)">
        <rect x="36.571" y="50" width="25" height="2.777"/>
    </g>
    <g transform="matrix(1.11739,0,0,1.11739,-1.65035,-11.7388)">
        <rect x="36.571" y="61.11" width="25" height="2.779"/>
    </g>
    <g transform="matrix(1.11739,0,0,1.11739,-1.65035,-11.7388)">
        <rect x="36.571" y="72.223" width="25" height="2.777"/>
    </g>
    <g transform="matrix(1.11739,0,0,1.11739,-1.65035,-11.7388)">
        <rect x="36.571" y="83.333" width="25" height="2.777"/>
    </g>
    <g transform="matrix(1.11739,0,0,1.11739,-1.65035,-11.7388)">
        <path d="M69.904,36.111L69.904,38.889L67.126,38.889L67.126,41.667L69.904,41.667L69.904,44.444L72.682,44.444L72.682,41.667L75.459,41.667L75.459,38.889L72.682,38.889L72.682,36.111L69.904,36.111Z" style="fill-rule:nonzero;"/>
    </g>
    <g transform="matrix(1.11739,0,0,1.11739,-1.65035,-11.7388)">
        <rect x="67.126" y="50" width="8.333" height="2.777"/>
    </g>
    <g transform="matrix(1.11739,0,0,1.11739,-1.65035,-11.7388)">
        <path d="M67.126,63.89L69.904,63.89L69.904,66.667L72.682,66.667L72.682,63.89L75.459,63.89L75.459,61.11L72.682,61.11L72.682,58.333L69.904,58.333L69.904,61.11L67.126,61.11L67.126,63.89Z" style="fill-rule:nonzero;"/>
    </g>
    <g transform="matrix(1.11739,0,0,1.11739,-1.65035,-11.7388)">
        <rect x="67.126" y="72.223" width="8.333" height="2.777"/>
    </g>
    <g transform="matrix(1.11739,0,0,1.11739,-1.65035,-11.7388)">
        <path d="M67.126,86.11L69.904,86.11L69.904,88.89L72.682,88.89L72.682,86.11L75.459,86.11L75.459,83.333L72.682,83.333L72.682,80.556L69.904,80.556L69.904,83.333L67.126,83.333L67.126,86.11Z" style="fill-rule:nonzero;"/>
    </g>
    <g transform="matrix(0.973566,0,0,0.973566,-0.370868,-6.84949)">
        <rect x="4.122" y="7.035" width="44.949" height="27.104"/>
        <g transform="matrix(2.86296,0,0,2.86296,-22.0631,-16.736)">
            <path d="M22.006,15.797L22.006,14.633L21.286,14.633L21.286,12.149C21.286,10.865 20.398,10.277 19.426,10.277C18.574,10.277 17.962,10.721 17.662,11.441C17.398,10.649 16.678,10.277 15.898,10.277C15.142,10.277 14.578,10.625 14.254,11.201L14.254,10.385L11.998,10.385L11.998,11.561L12.706,11.561L12.706,14.633L11.986,14.633L11.986,15.797L15.286,15.797L15.286,14.633L14.254,14.633L14.254,12.737C14.254,11.981 14.554,11.453 15.298,11.453C15.91,11.453 16.222,11.813 16.222,12.749L16.222,15.797L18.49,15.797L18.49,14.633L17.77,14.633L17.77,12.737C17.77,11.981 18.07,11.453 18.814,11.453C19.426,11.453 19.738,11.813 19.738,12.749L19.738,15.797L22.006,15.797Z" style="fill:rgb(205,205,205);fill-rule:nonzero;"/>
        </g>
    </g>
</svg>
