<?xml version="1.0" encoding="UTF-8" standalone="no"?>
<!DOCTYPE svg PUBLIC "-//W3C//DTD SVG 1.1//EN" "http://www.w3.org/Graphics/SVG/1.1/DTD/svg11.dtd">
<svg width="100%" height="100%" viewBox="0 0 96 96" version="1.1" xmlns="http://www.w3.org/2000/svg" xmlns:xlink="http://www.w3.org/1999/xlink" xml:space="preserve" xmlns:serif="http://www.serif.com/" style="fill-rule:evenodd;clip-rule:evenodd;stroke-linecap:round;stroke-linejoin:round;stroke-miterlimit:1.41421;">
    <g transform="matrix(0.809948,0,0,0.822035,18.1093,4.86206)">
        <path d="M78.883,2.587L78.883,102.367L-5.073,102.367L-5.073,2.587L78.883,2.587ZM10.977,18.402L10.977,86.552L62.832,86.552L62.832,18.402L10.977,18.402Z" style="fill:rgb(79,79,79);"/>
    </g>
    <g transform="matrix(1.29215,0,0,1.20173,0.810225,-15.0476)">
        <path d="M63.165,13.622L63.497,13.662L63.824,13.729L64.146,13.821L64.461,13.94L64.766,14.083L65.061,14.251L65.343,14.441L65.611,14.654L65.864,14.888L66.1,15.141L66.317,15.413L66.515,15.702L66.693,16.005L66.848,16.322L66.982,16.65L67.092,16.989L67.178,17.335L67.24,17.687L67.277,18.043L67.29,18.402L67.29,86.552L67.277,86.911L67.24,87.267L67.178,87.619L67.092,87.965L66.982,88.303L66.848,88.632L66.693,88.949L66.515,89.252L66.317,89.541L66.1,89.813L65.864,90.066L65.611,90.3L65.343,90.513L65.061,90.703L64.766,90.871L64.461,91.014L64.146,91.133L63.824,91.225L63.497,91.292L63.165,91.332L62.832,91.345L10.977,91.345L10.644,91.332L10.313,91.292L9.985,91.225L9.663,91.133L9.348,91.014L9.043,90.871L8.748,90.703L8.466,90.513L8.198,90.3L7.945,90.066L7.709,89.813L7.492,89.541L7.294,89.252L7.116,88.949L6.961,88.632L6.827,88.303L6.717,87.965L6.631,87.619L6.569,87.267L6.532,86.911L6.519,86.552L6.519,18.402L6.532,18.043L6.569,17.687L6.631,17.335L6.717,16.989L6.827,16.65L6.961,16.322L7.116,16.005L7.294,15.702L7.492,15.413L7.709,15.141L7.945,14.888L8.198,14.654L8.466,14.441L8.748,14.251L9.043,14.083L9.348,13.94L9.663,13.821L9.985,13.729L10.313,13.662L10.644,13.622L10.977,13.609L62.832,13.609L63.165,13.622ZM10.977,18.402L10.977,86.552L62.832,86.552L62.832,18.402L10.977,18.402Z" style="fill:rgb(224,224,224);"/>
    </g>
    <g id="path2223" transform="matrix(4.69925,0,0,4.69925,-903.652,-2419.89)">
        <path d="M197.68,534.316C197.405,534.312 196.218,532.537 195.042,530.371L192.905,526.434C192.905,526.434 193.675,525.785 194.637,525.492C195.598,525.199 196.545,525.326 196.545,525.326L197.181,527.331L197.818,529.336L202.882,523.795C205.668,520.747 208.885,517.751 210.032,517.137L212.118,516.021L207.909,520.803C205.594,523.433 202.457,527.551 200.939,529.954C199.422,532.356 197.955,534.319 197.68,534.316Z" style="fill:rgb(77,77,77);fill-rule:nonzero;stroke:rgb(224,224,224);stroke-width:0.85px;"/>
    </g>
</svg>
